# AST/ASF file generated using VICON BodyLanguage
# -----------------------------------------------
:version 1.10
:name VICON
:units
  mass 1.0
  length 0.45
  angle deg
:documentation
   .ast/.asf automatically generated from VICON data using
   VICON BodyBuilder and BodyLanguage model FoxedUp or BRILLIANT.MOD
:root
   order TX TY TZ RX RY RZ
   axis XYZ
   position 0 0 0  
   orientation 0 0 0 
:bonedata
  begin
     id 1 
     name lhipjoint
     direction 0.722297 -0.617336 0.311742 
     length 2.6635 
     axis 0 0 0  XYZ
  end
  begin
     id 2 
     name lfemur
     direction 0.34202 -0.939693 0  
     length 7.39349  
     axis 0 0 20  XYZ
    dof rx ry rz
    limits (-160.0 20.0)
           (-70.0 70.0)
           (-60.0 70.0)
  end
  begin
     id 3 
     name ltibia
     direction 0.34202 -0.939693 0   
     length 7.36294   
     axis 0 0 20   XYZ
    dof rx
    limits (-10.0 170.0)
  end
  begin
     id 4 
     name lfoot
     direction 0.104879 -0.288152 0.951824   
     length 2.16981   
     axis -90 7.62852e-016 20   XYZ
    dof rx rz
    limits (-45.0 90.0)
           (-70.0 20.0)
  end
  begin
     id 5 
     name ltoes
     direction 1.53586e-011 -4.21895e-011 1   
     length 1.08218   
     axis -90 7.62852e-016 20   XYZ
    dof rx
    limits (-90.0 20.0)
  end
  begin
     id 6 
     name rhipjoint
     direction -0.75102 -0.589393 0.297631   
     length 2.78977  
     axis 0 0 0  XYZ 
  end
  begin
     id 7 
     name rfemur
     direction -0.34202 -0.939693 0   
     length 7.46076   
     axis 0 0 -20   XYZ
    dof rx ry rz
    limits (-160.0 20.0)
           (-70.0 70.0)
           (-70.0 60.0)
  end
  begin
     id 8 
     name rtibia
     direction -0.34202 -0.939693 0   
     length 7.31726   
     axis 0 0 -20   XYZ
    dof rx
    limits (-10.0 170.0)
 end
 begin
     id 9 
     name rfoot
     direction -0.107991 -0.296704 0.948844   
     length 2.09388  
     axis -90 -7.62852e-016 -20   XYZ
    dof rx rz
    limits (-45.0 90.0)
           (-20.0 70.0)
  end
  begin
     id 10 
     name rtoes
     direction -1.53559e-011 -4.21911e-011 1   
     length 1.04433   
     axis -90 -7.62852e-016 -20   XYZ
    dof rx
    limits (-90.0 20.0)
  end
  begin
     id 11 
     name lowerback
     direction 0.0165164 0.98272 0.184358   
     length 1.71896   
     axis 0 0 0   XYZ
    dof rx ry rz
    limits (-20.0 45.0)
           (-30.0 30.0)
           (-30.0 30.0)
  end
  begin
     id 12 
     name upperback
     direction -0.00887249 0.992297 0.123566   
     length 1.71504   
     axis 0 0 0   XYZ
    dof rx ry rz
    limits (-20.0 45.0)
           (-30.0 30.0)
           (-30.0 30.0)
  end
  begin
     id 13 
     name thorax
     direction -0.0157026 0.998908 0.0440032   
     length 1.77022   
     axis 0 0 0   XYZ
    dof rx ry rz
    limits (-20.0 45.0)
           (-30.0 30.0)
           (-30.0 30.0)
  end
  begin
     id 14 
     name lowerneck
     direction -0.0238856 0.998137 0.0561411   
     length 1.89341   
     axis 0 0 0   XYZ
    dof rx ry rz
    limits (-20.0 45.0)
           (-30.0 30.0)
           (-30.0 30.0)
  end
  begin
     id 15 
     name upperneck
     direction 0.0276574 0.952253 -0.304056   
     length 1.86999   
     axis 0 0 0   XYZ
    dof rx ry rz
    limits (-20.0 45.0)
           (-30.0 30.0)
           (-30.0 30.0)
  end
  begin
     id 16
     name head
     direction 0.00800083 0.994258 -0.106712  
     length 1.91492  
     axis 0 0 0   XYZ
    dof rx ry rz
    limits (-20.0 45.0)
           (-30.0 30.0)
           (-30.0 30.0)
  end
  begin
     id 17 
     name lclavicle
     direction 0.97203 0.225407 0.06595  
     length 3.34889  
     axis 0 0 0   XYZ
    dof ry rz
    limits (-20.0 10.0)
           (0.0 20.0)
  end
  begin
     id 18 
     name lhumerus
     direction 1 -4.48973e-011 2.20267e-027   
     length 4.85645   
     axis 180 -30 -90   XYZ
    dof rx ry rz
    limits (-60.0 90.0)
           (-90.0 90.0)
           (-90.0 90.0)
  end
  begin
     id 19
     name lradius
     direction 1 -4.4897e-011 4.60472e-027   
     length 2.79874   
     axis 180 -30 -90   XYZ
    dof rx
    limits (-10.0 170.0)
  end
  begin
     id 20
     name lwrist
     direction 1 -4.48952e-011 1.14928e-026   
     length 1.39937   
     axis -6.29373e-015 90 90   XYZ
    dof ry
    limits (-180.0 0.0)
 end
  begin
     id 21 
     name lhand
     direction 1 -4.48967e-011 2.29886e-026   
     length 0.573398   
     axis -1.46689e-014 90 90   XYZ
    dof rx rz
    limits (-90.0 90.0)
           (-45.0 45.0)
  end
  begin
     id 22 
     name lfingers
     direction 1 -4.48955e-011 4.59726e-026   
     length 0.462289   
     axis -2.93383e-014 90 90   XYZ
    dof rx
    limits (0.0 90.0)
  end
  begin
     id 23
     name lthumb
     direction 0.707107 -6.34866e-011 0.707107   
     length 0.663757   
     axis -90 45 5.69224e-014   XYZ
    dof rx rz
    limits (-45.0 45.0)
           (-45.0 45.0)
  end
  begin
     id 24 
     name rclavicle
     direction -0.981571 0.157346 0.108443   
     length 3.35257  
     axis 0 0 0   XYZ 
    dof ry rz
    limits (-10.0 20.0)
           (-20.0 0.0)
  end
  begin
     id 25 
     name rhumerus
     direction -1 -4.48967e-011 8.58308e-029  
     length 4.67018   
     axis 180 30 90   XYZ
    dof rx ry rz
    limits (-90.0 60.0)
           (-90.0 90.0)
           (-90.0 90.0)
  end
  begin
     id 26 
     name rradius
     direction -1 -4.48958e-011 4.52548e-027   
     length 2.65534   
     axis 180 30 90   XYZ
    dof rx
    limits (-10.0 170.0)
  end
  begin
     id 27 
     name rwrist
     direction -1 -4.48977e-011 1.14952e-026   
     length 1.32767   
     axis -6.29373e-015 -90 -90   XYZ
    dof ry
    limits (-180.0 0.0)
  end
  begin
     id 28
     name rhand
     direction -1 -4.48924e-011 2.29804e-026   
     length 0.594069   
     axis -1.46689e-014 -90 -90   XYZ
    dof rx rz
    limits (-90.0 90.0)
           (-45.0 45.0)
  end
  begin
     id 29
     name rfingers
     direction -1 -4.48998e-011 4.59888e-026   
     length 0.478954   
     axis -2.93383e-014 -90 -90   XYZ
    dof rx
    limits (0.0 90.0)
  end
  begin
     id 30
     name rthumb
     direction -0.707107 -6.34933e-011 0.707107   
     length 0.687685   
     axis -90 -45 -5.69224e-014   XYZ
    dof rx rz
    limits (-45.0 45.0)
           (-45.0 45.0)
  end
:hierarchy
  begin
    root lhipjoint rhipjoint lowerback
    lhipjoint lfemur
    lfemur ltibia
    ltibia lfoot
    lfoot ltoes
    rhipjoint rfemur
    rfemur rtibia
    rtibia rfoot
    rfoot rtoes
    lowerback upperback
    upperback thorax
    thorax lowerneck lclavicle rclavicle
    lowerneck upperneck
    upperneck head
    lclavicle lhumerus
    lhumerus lradius
    lradius lwrist
    lwrist lhand lthumb
    lhand lfingers
    rclavicle rhumerus
    rhumerus rradius
    rradius rwrist
    rwrist rhand rthumb
    rhand rfingers
  end

#!OML:ASF E:\pregnant2\Project 1\Capture day 1\Session 1\pregnant2.ASF
:FULLY-SPECIFIED
:DEGREES
341
root 9.12653 11.2634 18.0818 26.1086 0.865951 -6.41973
lowerback -44.7117 1.03687 7.75618
upperback -14.387 -2.40975 4.01869
thorax 4.42545 -1.24333 -0.578485
lowerneck -11.1554 -3.67484 -3.9328
upperneck 45.168 -6.57798 3.00328
head 19.641 -2.97321 0.925203
rclavicle 3.37934e-014 -7.95139e-016
rhumerus -38.5813 35.7795 -82.8622
rradius 70.8659
rwrist 27.0702
rhand 14.5907 -13.3992
rfingers 7.12502
rthumb 39.4662 -38.7841
lclavicle 3.37934e-014 -7.95139e-016
lhumerus -44.3021 -4.85795 81.0784
lradius 71.9011
lwrist -35.0264
lhand 19.1616 25.6599
lfingers 7.12502
lthumb 43.7533 49.6342
rfemur -105.025 9.07383 24.8586
rtibia 74.0988
rfoot 6.72382 -14.0696
rtoes 8.04142
lfemur -134.44 -31.7519 -49.1822
ltibia 91.165
lfoot 18.0466 -15.2889
ltoes -26.2538
342
root 9.13027 11.2651 18.084 26.2331 0.88111 -6.44474
lowerback -44.9699 1.07379 7.75686
upperback -14.3701 -2.39125 4.00499
thorax 4.50958 -1.23031 -0.585415
lowerneck -11.0759 -3.66978 -3.91451
upperneck 45.2756 -6.57724 2.98383
head 19.6895 -2.97272 0.915207
rclavicle 2.38542e-015 7.15625e-015
rhumerus -38.6094 35.7177 -82.8334
rradius 70.8014
rwrist 27.2851
rhand 14.5553 -13.32
rfingers 7.12502
rthumb 39.4329 -38.7146
lclavicle 2.38542e-015 7.15625e-015
lhumerus -44.2443 -4.89911 81.1345
lradius 71.834
lwrist -34.9764
lhand 19.1296 25.6699
lfingers 7.12502
lthumb 43.7234 49.6552
rfemur -105.129 9.06192 24.8765
rtibia 74.0664
rfoot 6.73461 -14.0494
rtoes 8.03979
lfemur -134.5 -31.8087 -49.1751
ltibia 91.1148
lfoot 17.9968 -15.2468
ltoes -26.1731
343
root 9.13411 11.2675 18.0876 26.4042 0.897603 -6.47074
lowerback -45.2993 1.12073 7.76405
upperback -14.3492 -2.37066 3.98633
thorax 4.61465 -1.21567 -0.599596
lowerneck -10.9971 -3.66573 -3.89565
upperneck 45.371 -6.57864 2.96775
head 19.7303 -2.97256 0.90625
rclavicle 4.21423e-014 -3.02153e-014
rhumerus -38.6361 35.6494 -82.8029
rradius 70.7412
rwrist 27.4842
rhand 14.5274 -13.2393
rfingers 7.12502
rthumb 39.4066 -38.6417
lclavicle 4.21423e-014 -3.02153e-014
lhumerus -44.1902 -4.95016 81.1923
lradius 71.7719
lwrist -34.9274
lhand 19.0941 25.6883
lfingers 7.12502
lthumb 43.6903 49.6858
rfemur -105.275 9.05274 24.8884
rtibia 74.0281
rfoot 6.74812 -14.0279
rtoes 8.03086
lfemur -134.592 -31.8856 -49.1643
ltibia 91.0577
lfoot 17.9427 -15.2042
ltoes -26.0889
344
root 9.13796 11.27 18.0918 26.5926 0.913772 -6.49854
lowerback -45.6553 1.17536 7.7782
upperback -14.3255 -2.34635 3.96206
thorax 4.7278 -1.19932 -0.621421
lowerneck -10.9239 -3.66246 -3.87459
upperneck 45.4575 -6.58241 2.95488
head 19.767 -2.97244 0.897828
rclavicle -4.77083e-014 1.82882e-014
rhumerus -38.6618 35.574 -82.773
rradius 70.6843
rwrist 27.6639
rhand 14.5009 -13.1621
rfingers 7.12502
rthumb 39.3817 -38.5717
lclavicle -4.77083e-014 1.82882e-014
lhumerus -44.1363 -5.01451 81.2488
lradius 71.7147
lwrist -34.8747
lhand 19.0536 25.7093
lfingers 7.12502
lthumb 43.6524 49.7206
rfemur -105.436 9.04553 24.9011
rtibia 73.99
rfoot 6.75675 -14.0053
rtoes 8.03188
lfemur -134.693 -31.9692 -49.1589
ltibia 90.9971
lfoot 17.8906 -15.166
ltoes -26.0067
345
root 9.14169 11.2719 18.0958 26.7598 0.927603 -6.52621
lowerback -45.9773 1.22932 7.79199
upperback -14.3023 -2.31909 3.93548
thorax 4.83091 -1.18218 -0.64429
lowerneck -10.856 -3.65921 -3.85281
upperneck 45.5336 -6.58712 2.94626
head 19.7986 -2.97193 0.891025
rclavicle -3.06128e-014 0
rhumerus -38.6879 35.4921 -82.7425
rradius 70.6335
rwrist 27.8228
rhand 14.4697 -13.0888
rfingers 7.12502
rthumb 39.3523 -38.507
lclavicle -3.06128e-014 0
lhumerus -44.0837 -5.08756 81.3041
lradius 71.6609
lwrist -34.827
lhand 19.0067 25.7279
lfingers 7.12502
lthumb 43.6086 49.7552
rfemur -105.58 9.03925 24.9168
rtibia 73.9595
rfoot 6.76253 -13.9825
rtoes 8.02567
lfemur -134.773 -32.043 -49.173
ltibia 90.9362
lfoot 17.8437 -15.137
ltoes -25.9373
346
root 9.14522 11.2726 18.0986 26.8745 0.940786 -6.55497
lowerback -46.2146 1.27843 7.80868
upperback -14.2843 -2.28955 3.90547
thorax 4.90673 -1.16565 -0.671531
lowerneck -10.7989 -3.65419 -3.82784
upperneck 45.6084 -6.5917 2.94266
head 19.8326 -2.96993 0.885907
rclavicle -3.22031e-014 2.62396e-014
rhumerus -38.7209 35.4078 -82.7237
rradius 70.5892
rwrist 27.9598
rhand 14.4302 -13.0401
rfingers 7.12502
rthumb 39.315 -38.4691
lclavicle -3.22031e-014 2.62396e-014
lhumerus -44.0348 -5.17006 81.3507
lradius 71.6105
lwrist -34.7845
lhand 18.9534 25.7343
lfingers 7.12502
lthumb 43.5589 49.7798
rfemur -105.679 9.03039 24.943
rtibia 73.9425
rfoot 6.76423 -13.9603
rtoes 8.01799
lfemur -134.806 -32.0946 -49.2139
ltibia 90.878
lfoot 17.8032 -15.1171
ltoes -25.8818
347
root 9.14844 11.2719 18.1003 26.9274 0.950762 -6.5837
lowerback -46.3517 1.3173 7.81969
upperback -14.2746 -2.2592 3.87815
thorax 4.94944 -1.15015 -0.693132
lowerneck -10.746 -3.64717 -3.80326
upperneck 45.6768 -6.59253 2.94028
head 19.8635 -2.96629 0.882071
rclavicle 7.95139e-016 -9.54166e-015
rhumerus -38.7623 35.3247 -82.7104
rradius 70.5512
rwrist 28.0745
rhand 14.3852 -13.0036
rfingers 7.12502
rthumb 39.2726 -38.445
lclavicle 7.95139e-016 -9.54166e-015
lhumerus -43.9915 -5.25649 81.3948
lradius 71.5622
lwrist -34.749
lhand 18.9041 25.7328
lfingers 7.12502
lthumb 43.5129 49.795
rfemur -105.727 9.02043 24.9799
rtibia 73.9411
rfoot 6.76063 -13.937
rtoes 8.00201
lfemur -134.788 -32.1178 -49.2837
ltibia 90.8237
lfoot 17.7703 -15.1043
ltoes -25.8332
